<svg xmlns="http://www.w3.org/2000/svg" viewBox="0 0 133.1 173.6"><ellipse fill="#007CFF" class="st0" cx="122.6" cy="10.3" rx="10.1" ry="10.2"/><path fill="#007CFF" d="M36.3 132.1H5.5l4.8 8.4c17.8-38.5 35.6-77 53.5-115.6 2.6-5.5 5.1-11 7.7-16.5h-9.7c17.8 38.5 35.6 77 53.5 115.6 2.6 5.5 5.1 11 7.7 16.5l4.8-8.4H66.9c-3 0-5.6 2.6-5.6 5.6v30.6c0 7.2 11.2 7.2 11.2 0v-30.6l-5.6 5.6h60.9c4.5 0 6.6-4.7 4.8-8.4C114.7 96.3 96.8 57.8 79 19.3c-2.6-5.5-5.1-11-7.7-16.5-1.7-3.7-8-3.7-9.7 0C43.8 41.3 26 79.8 8.1 118.4c-2.6 5.5-5.1 11-7.7 16.5-1.7 3.7.3 8.4 4.8 8.4H36c7.4 0 7.5-11.2.3-11.2z"/></svg>