<svg xmlns="http://www.w3.org/2000/svg" viewBox="0 0 32.06 18.51"><path d="M31.65 16.51l-.11-.2a16.09 16.09 0 0 0-3.14-3.63h0v0h0a18 18 0 0 1-1.4-1.42 1.26 1.26 0 0 1-.23-1.33 11.81 11.81 0 0 1 1.48-2.15c.45-.58.8-1 1.06-1.4q2.85-3.78 2.47-4.83l-.1-.16a.89.89 0 0 0-.51-.27 2.5 2.5 0 0 0-1.05-.05h-4.73a.54.54 0 0 0-.33 0h-.21l-.09.05-.06.05a.56.56 0 0 0-.18.17 1.17 1.17 0 0 0-.17.29 26.2 26.2 0 0 1-1.76 3.69q-.6 1-1.11 1.77a8 8 0 0 1-.86 1.1 5.9 5.9 0 0 1-.62.57c-.19.14-.33.2-.43.18l-.29.06a1.1 1.1 0 0 1-.37-.4 1.79 1.79 0 0 1-.19-.64c0-.26 0-.48-.06-.67s0-.45 0-.79V4.46c0-.49 0-.88.05-1.16s0-.59 0-.9a3.64 3.64 0 0 0-.06-.75 2 2 0 0 0-.17-.53.87.87 0 0 0-.28-.43 1.54 1.54 0 0 0-.55-.22 10.2 10.2 0 0 0-2.21-.22 10.67 10.67 0 0 0-3.93.4 2.24 2.24 0 0 0-.63.49c-.19.24-.22.37-.08.39a2 2 0 0 1 1.4.71l.1.2a3.59 3.59 0 0 1 .23.75 8.59 8.59 0 0 1 .14 1.2 11.73 11.73 0 0 1 0 2.06c-.05.57-.1 1-.15 1.33a3 3 0 0 1-.22.77 3.08 3.08 0 0 1-.2.36.38.38 0 0 1-.1.09 1.38 1.38 0 0 1-.45.08 1.09 1.09 0 0 1-.55-.23 4.86 4.86 0 0 1-.68-.64 8 8 0 0 1-.79-1.12 16.38 16.38 0 0 1-.92-1.71l-.26-.48c-.16-.3-.39-.75-.67-1.34s-.54-1.15-.76-1.7a1.11 1.11 0 0 0-.39-.52l-.08-.05a1.1 1.1 0 0 0-.27-.14A1.58 1.58 0 0 0 5.81 1H1.3a1.12 1.12 0 0 0-.93.32l-.07.16a.62.62 0 0 0 0 .27 1.18 1.18 0 0 0 .1.44q1 2.33 2.14 4.47c.78 1.44 1.45 2.59 2 3.47s1.15 1.7 1.74 2.48 1 1.28 1.17 1.5l.46.49.41.39a9.65 9.65 0 0 0 1.15.95A17.82 17.82 0 0 0 11.14 17a8.86 8.86 0 0 0 2.16.87 7.43 7.43 0 0 0 2.4.28h1.89a1.35 1.35 0 0 0 .87-.37l.06-.08a1 1 0 0 0 .13-.3 1.63 1.63 0 0 0 .06-.45 5.12 5.12 0 0 1 .1-1.28 3.35 3.35 0 0 1 .28-.85 2.37 2.37 0 0 1 .35-.49 2.42 2.42 0 0 1 .28-.24h.14a1 1 0 0 1 .92.25 5.67 5.67 0 0 1 1 1c.31.37.68.8 1.12 1.27a7.76 7.76 0 0 0 1.15 1.05l.33.2a4.2 4.2 0 0 0 .86.36 1.77 1.77 0 0 0 .92.08l4.2-.06a1.86 1.86 0 0 0 1-.21.82.82 0 0 0 .41-.45 1.17 1.17 0 0 0 0-.56 2.27 2.27 0 0 0-.12-.51z" fill="#ededed" stroke="#848484" stroke-miterlimit="10" stroke-width=".5" data-name="Слой 2"/></svg>